<?xml version="1.0" standalone="no"?>
<!DOCTYPE svg PUBLIC "-//W3C//DTD SVG 20010904//EN"
 "http://www.w3.org/TR/2001/REC-SVG-20010904/DTD/svg10.dtd">
<svg version="1.0" xmlns="http://www.w3.org/2000/svg"
 width="700.000000pt" height="700.000000pt" viewBox="0 0 700.000000 700.000000"
 preserveAspectRatio="xMidYMid meet">
<metadata>
Created by potrace 1.14, written by Peter Selinger 2001-2017
</metadata>
<g transform="translate(0.000000,700.000000) scale(0.100000,-0.100000)"
fill="#000000" stroke="none">
<path d="M2888 6815 c-2 -1 -32 -5 -68 -9 -202 -19 -413 -121 -563 -272 -48
-48 -169 -213 -173 -234 0 -3 -10 -25 -21 -50 -54 -122 -79 -243 -82 -408 -2
-104 -12 -133 -50 -159 -24 -16 -70 -19 -511 -24 -267 -3 -496 -8 -509 -12
-93 -25 -142 -42 -186 -64 -232 -117 -388 -317 -442 -567 -20 -95 -25 -1134
-6 -1229 15 -74 65 -137 138 -176 50 -26 51 -26 296 -28 135 -1 272 -6 305
-12 206 -38 394 -230 439 -448 55 -268 -95 -555 -345 -656 -92 -37 -97 -37
-377 -39 -242 -1 -255 -2 -303 -24 -58 -27 -101 -68 -132 -127 -23 -42 -23
-42 -26 -612 -2 -485 0 -583 13 -658 43 -239 197 -448 415 -564 46 -25 139
-62 175 -69 6 -1 24 -6 40 -10 53 -14 1184 -17 1233 -3 90 25 175 117 187 203
3 22 8 135 9 251 4 223 10 254 61 358 105 208 317 338 540 332 245 -7 448
-139 525 -340 22 -56 23 -76 26 -313 1 -139 5 -269 9 -289 10 -57 40 -107 86
-146 80 -69 67 -68 719 -64 322 2 600 6 619 10 140 27 278 97 399 202 37 32
116 134 150 195 31 55 74 175 87 240 4 19 8 245 10 503 2 325 6 476 14 495 21
50 62 65 182 68 274 8 469 84 654 256 196 182 301 423 303 693 2 380 -220 712
-577 864 -116 49 -223 71 -379 75 -121 4 -151 14 -177 59 -18 30 -19 61 -20
482 -1 248 -5 470 -9 495 -57 333 -289 575 -631 656 -16 4 -241 9 -500 11
-525 3 -519 2 -548 71 -10 24 -18 80 -20 157 -3 66 -8 131 -11 145 -3 14 -8
36 -11 50 -6 36 -38 126 -65 185 -56 123 -170 266 -282 351 -102 79 -274 160
-378 178 -14 2 -41 7 -60 10 -37 7 -167 15 -172 11z"/>
</g>
</svg>
